<svg width="166" height="49" viewBox="0 0 166 49" fill="none" xmlns="http://www.w3.org/2000/svg">
<path d="M9.512 39.176C7.24 39.176 5.4 38.6 3.992 37.448C2.616 36.328 1.608 34.872 0.968 33.08C0.36 31.288 0.0560001 29.416 0.0560001 27.464C0.0560001 24.936 0.44 22.392 1.208 19.832C1.976 17.272 3.016 14.84 4.328 12.536C5.672 10.2 7.192 8.136 8.888 6.344C10.584 4.52 12.36 3.096 14.216 2.072C16.104 1.016 17.96 0.487998 19.784 0.487998C21.096 0.487998 22.152 0.807998 22.952 1.448C23.784 2.056 24.2 3.112 24.2 4.616C24.2 5.544 24.04 6.6 23.72 7.784C23.4 8.936 22.968 10.056 22.424 11.144C21.88 12.2 21.272 13.08 20.6 13.784C19.96 14.488 19.304 14.84 18.632 14.84C18.376 14.84 18.104 14.76 17.816 14.6C17.56 14.44 17.336 14.152 17.144 13.736C17.624 13.192 18.152 12.52 18.728 11.72C19.336 10.888 19.912 10.024 20.456 9.128C21 8.2 21.432 7.304 21.752 6.44C22.104 5.544 22.28 4.76 22.28 4.088C22.28 3.448 22.088 2.936 21.704 2.552C21.352 2.136 20.76 1.928 19.928 1.928C18.552 1.928 17.112 2.488 15.608 3.608C14.136 4.728 12.696 6.232 11.288 8.12C9.912 9.976 8.664 12.056 7.544 14.36C6.424 16.664 5.528 19.016 4.856 21.416C4.216 23.816 3.896 26.104 3.896 28.28C3.896 29.848 4.12 31.352 4.568 32.792C5.016 34.2 5.736 35.336 6.728 36.2C7.752 37.096 9.064 37.544 10.664 37.544C12.36 37.544 14.04 37.064 15.704 36.104C17.4 35.144 18.952 33.88 20.36 32.312C21.768 30.744 22.888 29.048 23.72 27.224L24.392 27.704C23.336 29.784 22.056 31.704 20.552 33.464C19.048 35.192 17.368 36.568 15.512 37.592C13.656 38.648 11.656 39.176 9.512 39.176ZM25.0228 37.256C24.0308 37.256 23.1988 36.92 22.5267 36.248C21.8227 35.608 21.4707 34.616 21.4707 33.272C21.4707 32.12 21.7267 30.888 22.2387 29.576C22.7507 28.232 23.4548 26.92 24.3508 25.64C25.2468 24.328 26.2548 23.144 27.3748 22.088C28.5268 21 29.7268 20.136 30.9748 19.496C32.2548 18.856 33.5188 18.536 34.7668 18.536C36.0148 18.536 37.0548 18.872 37.8868 19.544C38.7188 20.184 39.1348 21.048 39.1348 22.136C39.1348 22.936 38.9108 23.48 38.4628 23.768C38.0468 24.056 37.4868 24.2 36.7828 24.2C36.8468 23.944 36.8948 23.672 36.9268 23.384C36.9908 23.064 37.0228 22.776 37.0228 22.52C37.0228 21.784 36.8468 21.16 36.4948 20.648C36.1428 20.104 35.5348 19.832 34.6708 19.832C33.7748 19.832 32.8628 20.152 31.9348 20.792C31.0068 21.4 30.1108 22.232 29.2468 23.288C28.3828 24.312 27.6148 25.432 26.9428 26.648C26.2708 27.864 25.7428 29.064 25.3588 30.248C24.9748 31.432 24.7828 32.488 24.7828 33.416C24.7828 34.664 25.2148 35.288 26.0788 35.288C26.8148 35.288 27.6148 34.952 28.4788 34.28C29.3428 33.576 30.2228 32.696 31.1188 31.64C32.0468 30.552 32.9268 29.432 33.7588 28.28C34.5908 27.128 35.3268 26.072 35.9668 25.112C36.0948 24.92 36.1748 24.824 36.2068 24.824C36.3988 24.856 36.6388 24.92 36.9268 25.016C37.2468 25.112 37.5188 25.24 37.7428 25.4C37.9668 25.56 38.0788 25.768 38.0788 26.024C38.0788 26.312 37.9348 26.712 37.6468 27.224C37.3588 27.704 37.0388 28.264 36.6868 28.904C36.3348 29.544 36.0148 30.2 35.7268 30.872C35.4388 31.512 35.2948 32.12 35.2948 32.696C35.2948 33.176 35.4228 33.656 35.6788 34.136C35.9348 34.584 36.3508 34.808 36.9268 34.808C37.7908 34.808 38.9268 34.184 40.3348 32.936C41.7428 31.656 43.1668 29.752 44.6068 27.224L45.0868 27.704C44.4148 29.432 43.5508 30.952 42.4948 32.264C41.4388 33.576 40.3028 34.6 39.0868 35.336C37.9028 36.072 36.7348 36.44 35.5828 36.44C34.3988 36.44 33.5188 36.088 32.9428 35.384C32.3988 34.68 32.1268 33.912 32.1268 33.08C32.1268 32.888 32.1428 32.68 32.1748 32.456C32.2068 32.2 32.2388 31.944 32.2708 31.688C30.8948 33.544 29.6308 34.936 28.4788 35.864C27.3588 36.792 26.2068 37.256 25.0228 37.256ZM59.129 35.96C58.009 35.96 57.161 35.672 56.585 35.096C56.041 34.52 55.769 33.784 55.769 32.888C55.769 32.216 55.881 31.512 56.105 30.776C56.361 30.04 56.601 29.288 56.825 28.52C57.049 27.72 57.161 26.952 57.161 26.216C57.161 25.32 56.969 24.712 56.585 24.392C56.233 24.04 55.785 23.864 55.241 23.864C54.249 23.864 53.241 24.28 52.217 25.112C51.193 25.912 50.201 26.952 49.241 28.232C48.281 29.48 47.385 30.776 46.553 32.12C45.721 33.464 44.985 34.664 44.345 35.72C43.833 35.72 43.353 35.624 42.905 35.432C42.425 35.272 42.057 35.016 41.801 34.664C41.801 34.504 41.977 34.008 42.329 33.176C42.649 32.344 43.033 31.32 43.481 30.104C43.929 28.888 44.329 27.64 44.681 26.36C45.033 25.08 45.209 23.912 45.209 22.856C45.401 22.632 45.705 22.408 46.121 22.184C46.537 21.96 46.969 21.848 47.417 21.848C48.281 21.848 48.713 22.264 48.713 23.096C48.713 23.608 48.569 24.472 48.281 25.688C47.993 26.872 47.625 28.12 47.177 29.432C48.041 28.12 49.001 26.824 50.057 25.544C51.145 24.232 52.297 23.144 53.513 22.28C54.729 21.416 55.945 20.984 57.161 20.984C58.409 20.984 59.305 21.432 59.849 22.328C60.425 23.224 60.713 24.216 60.713 25.304C60.713 26.296 60.553 27.224 60.233 28.088C59.913 28.92 59.577 29.736 59.225 30.536C58.905 31.304 58.745 32.088 58.745 32.888C58.745 33.56 58.873 34.04 59.129 34.328C59.417 34.584 59.769 34.712 60.185 34.712C60.985 34.712 61.785 34.344 62.585 33.608C63.385 32.84 64.153 31.88 64.889 30.728C65.657 29.576 66.329 28.408 66.905 27.224L67.433 27.848C66.761 29.416 66.009 30.808 65.177 32.024C64.345 33.24 63.433 34.2 62.441 34.904C61.449 35.608 60.345 35.96 59.129 35.96ZM68.8164 36.44C68.2724 36.44 67.7124 36.296 67.1364 36.008C66.5924 35.752 66.1444 35.32 65.7924 34.712C65.4084 34.104 65.2164 33.336 65.2164 32.408C65.2164 31.352 65.4724 30.168 65.9844 28.856C66.4964 27.544 67.1844 26.248 68.0484 24.968C68.9124 23.656 69.9044 22.456 71.0244 21.368C72.1444 20.248 73.3124 19.368 74.5284 18.728C75.7444 18.056 76.9444 17.72 78.1284 17.72C78.8004 17.72 79.3124 17.848 79.6644 18.104C80.0484 18.328 80.2404 18.696 80.2404 19.208C80.2404 19.336 80.2244 19.448 80.1924 19.544C80.1924 19.64 80.1764 19.752 80.1444 19.88C79.9844 19.624 79.7444 19.448 79.4244 19.352C79.1364 19.224 78.7684 19.16 78.3204 19.16C77.2964 19.16 76.2884 19.48 75.2964 20.12C74.3364 20.728 73.4404 21.544 72.6084 22.568C71.8084 23.56 71.1044 24.632 70.4964 25.784C69.8884 26.936 69.4084 28.056 69.0564 29.144C68.7364 30.2 68.5764 31.096 68.5764 31.832C68.5764 32.536 68.7364 33.096 69.0564 33.512C69.3764 33.928 69.7924 34.136 70.3044 34.136C71.1684 34.136 72.2084 33.592 73.4244 32.504C74.6724 31.416 75.9364 29.88 77.2164 27.896C78.4964 25.912 79.6484 23.592 80.6724 20.936C81.3764 19.08 82.0964 17.192 82.8324 15.272C83.6004 13.352 84.3684 11.512 85.1364 9.752C85.9044 7.96 86.6404 6.376 87.3444 5C88.0804 3.592 88.7684 2.488 89.4084 1.688C90.0804 0.855999 90.6724 0.439999 91.1844 0.439999C91.4404 0.439999 91.6644 0.551998 91.8564 0.775997C92.0484 0.967999 92.1444 1.224 92.1444 1.544C92.1444 2.056 91.8724 2.936 91.3284 4.184C90.8164 5.4 90.1284 6.872 89.2644 8.6C88.4324 10.296 87.5524 12.152 86.6244 14.168C85.6964 16.184 84.8004 18.232 83.9364 20.312C83.1044 22.392 82.4164 24.408 81.8724 26.36C81.3604 28.28 81.1044 30.04 81.1044 31.64C81.1044 32.536 81.1524 33.208 81.2484 33.656C81.3444 34.104 81.6644 34.328 82.2084 34.328C82.8804 34.328 83.6644 34.04 84.5604 33.464C85.4564 32.888 86.3524 32.072 87.2484 31.016C88.1444 29.96 88.9284 28.696 89.6004 27.224L90.1764 27.656C89.5684 29.288 88.7364 30.76 87.6804 32.072C86.6244 33.352 85.4884 34.36 84.2724 35.096C83.0884 35.864 81.9524 36.248 80.8644 36.248C79.6804 36.248 78.8484 35.848 78.3684 35.048C77.9204 34.28 77.6964 33.48 77.6964 32.648C77.6964 32.104 77.7764 31.384 77.9364 30.488C78.0964 29.592 78.3204 28.6 78.6084 27.512C77.5844 29.208 76.4964 30.744 75.3444 32.12C74.1924 33.464 73.0564 34.52 71.9364 35.288C70.8484 36.056 69.8084 36.44 68.8164 36.44ZM90.7359 48.44C89.9359 48.44 89.2319 48.216 88.6239 47.768C88.0159 47.352 87.7119 46.728 87.7119 45.896C87.7119 44.872 87.9679 43.96 88.4799 43.16C88.9919 42.36 89.6799 41.624 90.5439 40.952C91.4079 40.28 92.3999 39.64 93.5199 39.032C94.6399 38.424 95.8079 37.816 97.0239 37.208C97.4719 36.024 97.9199 34.712 98.3679 33.272C98.8479 31.8 99.2959 30.184 99.7119 28.424C98.6879 30.088 97.5839 31.528 96.3999 32.744C95.2479 33.928 94.0159 34.52 92.7039 34.52C92.0959 34.52 91.4879 34.392 90.8799 34.136C90.3039 33.848 89.8239 33.416 89.4399 32.84C89.0559 32.264 88.8639 31.528 88.8639 30.632C88.8639 29.736 89.0079 28.696 89.2959 27.512C89.6159 26.328 89.9999 25.176 90.4479 24.056C90.8959 22.936 91.3599 22.008 91.8399 21.272C92.3199 20.536 92.7359 20.168 93.0879 20.168C93.2159 20.168 93.4399 20.216 93.7599 20.312C94.1119 20.408 94.4319 20.552 94.7199 20.744C95.0399 20.904 95.1999 21.08 95.1999 21.272C94.9119 21.688 94.5919 22.28 94.2399 23.048C93.8879 23.816 93.5359 24.68 93.1839 25.64C92.8639 26.568 92.5919 27.48 92.3679 28.376C92.1439 29.272 92.0319 30.04 92.0319 30.68C92.0319 31.256 92.1599 31.72 92.4159 32.072C92.6719 32.424 93.1199 32.6 93.7599 32.6C94.3679 32.6 95.0399 32.312 95.7759 31.736C96.5439 31.128 97.2959 30.36 98.0319 29.432C98.7999 28.504 99.5039 27.512 100.144 26.456C100.24 26.104 100.32 25.752 100.384 25.4C100.48 25.016 100.56 24.632 100.624 24.248C100.72 23.8 100.944 23.288 101.296 22.712C101.68 22.104 102.272 21.8 103.072 21.8C103.232 21.8 103.392 21.816 103.552 21.848C103.712 21.848 103.888 21.88 104.08 21.944C104.08 22.456 103.92 23.416 103.6 24.824C103.312 26.2 102.88 27.816 102.304 29.672C101.76 31.528 101.104 33.432 100.336 35.384C101.84 34.808 103.312 33.864 104.752 32.552C106.192 31.208 107.36 29.432 108.256 27.224L108.88 27.704C108.4 29.24 107.664 30.584 106.672 31.736C105.712 32.856 104.624 33.832 103.408 34.664C102.192 35.464 100.992 36.136 99.8079 36.68C98.9759 38.728 98.0639 40.648 97.0719 42.44C96.1119 44.232 95.0879 45.672 93.9999 46.76C92.9439 47.88 91.8559 48.44 90.7359 48.44ZM90.4959 46.904C90.9759 46.904 91.7759 46.264 92.8959 44.984C94.0479 43.736 95.2639 41.528 96.5439 38.36C95.2319 39.064 94.0159 39.752 92.8959 40.424C91.7759 41.128 90.8799 41.88 90.2079 42.68C89.5359 43.48 89.1999 44.408 89.1999 45.464C89.1999 45.72 89.2959 46.024 89.4879 46.376C89.6799 46.728 90.0159 46.904 90.4959 46.904Z" fill="#E7426A"/>
<path d="M125.77 35.448C124.276 35.448 122.922 35.224 121.706 34.776C120.511 34.328 119.476 33.7093 118.602 32.92C117.748 32.1093 117.087 31.1707 116.618 30.104C116.17 29.0373 115.946 27.8533 115.946 26.552V14.488H119.274V26.456C119.274 27.672 119.54 28.7493 120.074 29.688C120.628 30.6267 121.396 31.3627 122.378 31.896C123.359 32.4293 124.49 32.696 125.77 32.696C127.071 32.696 128.212 32.4293 129.194 31.896C130.175 31.3413 130.943 30.5947 131.498 29.656C132.052 28.7173 132.33 27.64 132.33 26.424V14.488H135.658V26.552C135.658 27.8533 135.423 29.0373 134.954 30.104C134.484 31.1707 133.802 32.1093 132.906 32.92C132.031 33.7093 130.986 34.328 129.77 34.776C128.575 35.224 127.242 35.448 125.77 35.448ZM111.818 15.736V13.048H123.146V15.736H111.818ZM128.394 15.736V13.048H139.754V15.736H128.394Z" fill="#0057B8"/>
<path d="M141.281 34.424L149.857 14.36H154.529L163.201 34.424H159.649L151.713 14.456H152.417L144.481 34.424H141.281ZM138.753 35V32.312H149.153V35H138.753ZM146.241 27.224L146.977 24.824H157.281L157.985 27.224H146.241ZM155.265 35V32.312H165.729V35H155.265ZM146.017 15.704V13.048H158.369V15.704H146.017Z" fill="#FFD700"/>
</svg>
