<svg width="16" height="16" viewBox="0 0 16 16" fill="none" xmlns="http://www.w3.org/2000/svg">
<circle cx="8" cy="8" r="8" fill="#E7426A"/>
<path d="M11.8555 6.14673L11.1536 5.47192C11.0573 5.37932 10.9403 5.33301 10.8027 5.33301C10.665 5.33301 10.5479 5.37932 10.4517 5.47192L7.06581 8.73191L5.54838 7.26813C5.45202 7.17549 5.33504 7.12923 5.19745 7.12923C5.05977 7.12923 4.94279 7.17549 4.84644 7.26813L4.14451 7.94296C4.04816 8.03557 4 8.14807 4 8.28041C4 8.41265 4.04816 8.52525 4.14451 8.61785L6.71484 11.0888C6.81114 11.1815 6.92816 11.2277 7.06581 11.2277C7.20339 11.2277 7.32041 11.1814 7.41677 11.0888L11.8555 6.8216C11.9518 6.72896 12 6.61648 12 6.48414C12.0001 6.35186 11.9518 6.23937 11.8555 6.14673Z" fill="white"/>
</svg>
